<svg width="960" height="320" viewBox="0 0 960 320" fill="none" xmlns="http://www.w3.org/2000/svg" role="img" aria-labelledby="title desc">
  <title id="title">Log Friends</title>
  <desc id="desc">Log Friends logo with connected event nodes and wordmark.</desc>
  <rect width="960" height="320" rx="48" fill="#0B1220"/>
  <rect x="28" y="28" width="904" height="264" rx="36" fill="#101A2E" stroke="#23324D" stroke-width="2"/>

  <g transform="translate(88 70)">
    <path d="M54 52C54 29.909 71.909 12 94 12H156C178.091 12 196 29.909 196 52V114C196 136.091 178.091 154 156 154H94C71.909 154 54 136.091 54 114V52Z" fill="#13243E" stroke="#38BDF8" stroke-width="6"/>
    <path d="M86 82H164" stroke="#22C55E" stroke-width="10" stroke-linecap="round"/>
    <path d="M86 112H140" stroke="#A7F3D0" stroke-width="10" stroke-linecap="round"/>
    <path d="M86 52H146" stroke="#BAE6FD" stroke-width="10" stroke-linecap="round"/>

    <circle cx="42" cy="82" r="18" fill="#22C55E"/>
    <circle cx="208" cy="52" r="18" fill="#38BDF8"/>
    <circle cx="208" cy="132" r="18" fill="#F59E0B"/>
    <path d="M60 82H86" stroke="#22C55E" stroke-width="6" stroke-linecap="round"/>
    <path d="M164 52H190" stroke="#38BDF8" stroke-width="6" stroke-linecap="round"/>
    <path d="M148 112C168 112 174 132 190 132" stroke="#F59E0B" stroke-width="6" stroke-linecap="round"/>

    <text x="125" y="103" text-anchor="middle" font-family="Inter, ui-sans-serif, system-ui, -apple-system, BlinkMacSystemFont, Segoe UI, sans-serif" font-size="54" font-weight="800" fill="#F8FAFC">LF</text>
  </g>

  <g transform="translate(350 96)">
    <text x="0" y="58" font-family="Inter, ui-sans-serif, system-ui, -apple-system, BlinkMacSystemFont, Segoe UI, sans-serif" font-size="64" font-weight="800" fill="#F8FAFC">Log Friends</text>
    <text x="4" y="104" font-family="Inter, ui-sans-serif, system-ui, -apple-system, BlinkMacSystemFont, Segoe UI, sans-serif" font-size="24" font-weight="500" fill="#A7B4C8">Spring Boot event collection for lightweight teams</text>
    <g transform="translate(4 134)">
      <rect width="128" height="34" rx="17" fill="#123B2A" stroke="#22C55E" stroke-width="1.5"/>
      <text x="64" y="23" text-anchor="middle" font-family="Inter, ui-sans-serif, system-ui, -apple-system, BlinkMacSystemFont, Segoe UI, sans-serif" font-size="15" font-weight="700" fill="#BBF7D0">LOG_EVENT</text>
      <rect x="144" width="86" height="34" rx="17" fill="#12304A" stroke="#38BDF8" stroke-width="1.5"/>
      <text x="187" y="23" text-anchor="middle" font-family="Inter, ui-sans-serif, system-ui, -apple-system, BlinkMacSystemFont, Segoe UI, sans-serif" font-size="15" font-weight="700" fill="#BAE6FD">HTTP</text>
      <rect x="246" width="82" height="34" rx="17" fill="#3A2A0C" stroke="#F59E0B" stroke-width="1.5"/>
      <text x="287" y="23" text-anchor="middle" font-family="Inter, ui-sans-serif, system-ui, -apple-system, BlinkMacSystemFont, Segoe UI, sans-serif" font-size="15" font-weight="700" fill="#FDE68A">JDBC</text>
    </g>
  </g>
</svg>
